<svg width="24" height="24" viewBox="0 0 24 24" fill="none" xmlns="http://www.w3.org/2000/svg">
<path d="M17.3929 11.3023H11.6268C11.6268 11.902 11.6268 13.1013 11.6231 13.701H14.9644C14.8364 14.3006 14.3824 15.1402 13.741 15.5629C13.7404 15.5623 13.7398 15.5665 13.7385 15.5659C12.8857 16.129 11.7603 16.2567 10.9247 16.0888C9.61488 15.8286 8.5783 14.8787 8.15741 13.6722C8.15986 13.6704 8.1617 13.6536 8.16354 13.6524C7.90011 12.904 7.90011 11.902 8.16354 11.3023H8.16293C8.50233 10.2001 9.57016 9.19451 10.8818 8.91926C11.9368 8.69559 13.1271 8.93785 14.0026 9.75699C14.119 9.64305 15.6138 8.18347 15.7259 8.06474C12.735 5.35607 7.94605 6.30893 6.15409 9.80676H6.15348C6.15348 9.80676 6.15409 9.80676 6.15041 9.81336V9.81336C5.26393 11.5314 5.30069 13.5559 6.15654 15.1917C6.15409 15.1935 6.15225 15.1947 6.15041 15.1965C6.92601 16.7017 8.33753 17.856 10.0382 18.2956C11.8449 18.7693 14.1441 18.4455 15.6843 17.0525C15.6849 17.0531 15.6855 17.0537 15.6861 17.0543C16.991 15.8789 17.8034 13.8767 17.3929 11.3023" fill="white"/>
</svg>
