<svg width="24" height="24" viewBox="0 0 24 24" fill="none" xmlns="http://www.w3.org/2000/svg">
<path d="M9.403 18C14.6859 18 17.5755 13.3827 17.5755 9.3791C17.5755 9.24766 17.5755 9.11696 17.5671 8.987C18.1292 8.55873 18.6143 8.02707 19 7.41862C18.4764 7.66378 17.9199 7.82475 17.3508 7.89564C17.95 7.51683 18.3987 6.92168 18.6136 6.21945C18.0494 6.57241 17.4327 6.82125 16.7894 6.95491C15.7016 5.73506 13.8823 5.67598 12.7252 6.82347C11.9797 7.56335 11.6626 8.66653 11.8943 9.71876C9.585 9.59619 7.4332 8.44575 5.9744 6.55321C5.2121 7.93773 5.602 9.70843 6.8641 10.5975C6.407 10.5834 5.9597 10.4535 5.56 10.2187V10.2571C5.5607 11.6992 6.5246 12.9412 7.8644 13.2269C7.4416 13.3488 6.9978 13.3665 6.568 13.2786C6.9439 14.5132 8.0226 15.3587 9.2511 15.3831C8.234 16.2263 6.9775 16.6842 5.6839 16.6827C5.4557 16.6819 5.2275 16.6679 5 16.6391C6.3139 17.5282 7.842 18 9.403 17.9978" fill="white"/>
</svg>
